<?xml version="1.0" encoding="utf-8"?>
<!-- Generator: Adobe Illustrator 28.1.0, SVG Export Plug-In . SVG Version: 6.00 Build 0)  -->
<svg version="1.2" baseProfile="tiny-ps" id="Layer_1"
	 xmlns="http://www.w3.org/2000/svg" xmlns:xlink="http://www.w3.org/1999/xlink" viewBox="0 0 300 300"
	 xml:space="preserve">
<title>Synapse</title>
<g>
	<rect x="0" y="0" fill="#FFFFFF" width="300" height="300"/>
	<path d="M301,1v300H1V1H301 M302,0H0v302h302V0L302,0z"/>
</g>
<g>
	<path d="M43.052,162.54c0.06-4.02,0.12-8.1-0.12-12.12l1.62-0.12c1.02,7.739,5.459,12.18,12.12,12.18c4.439,0,8.58-1.98,8.58-6.78
		c0-5.28-5.16-7.56-10.38-10.14c-5.939-2.939-11.639-6.12-11.639-12.239c0-5.64,4.8-10.319,13.319-10.319
		c4.26,0,7.68,1.2,11.64,1.979c0,3.6,0.18,7.2,0.54,10.68l-1.62,0.18c-1.26-6.78-5.1-10.74-11.16-10.74c-4.14,0-7.8,1.86-7.8,5.76
		c0,4.56,4.98,6.96,9.84,9.3c7.08,3.42,12.359,6.3,12.359,13.02c0,6.42-4.86,11.46-14.58,11.46
		C51.152,164.641,47.792,163.5,43.052,162.54z"/>
	<path d="M100.471,141.061c-1.86,4.02-5.1,11.339-7.439,16.679c-4.74,10.92-6.54,14.819-7.86,17.1c-2.4,4.2-4.44,6.3-7.74,6.3
		c-3.18,0-4.62-1.98-4.62-3.78c0-1.739,1.2-2.819,2.52-3.3c1.26,1.26,2.34,2.04,3.6,2.04c2.04,0,4.26-2.58,9.06-13.02
		c-2.58-5.52-6.419-13.68-10.319-21.659c-0.96-1.98-1.74-2.46-4.38-2.7v-1.68c2.28,0.12,4.5,0.12,6.66,0.12c2.22,0,4.44,0,6.9-0.12
		v1.68c-2.64,0-3.3,0.54-3.3,1.5c0,0.6,0.3,1.44,1.02,3.18c1.26,2.94,3.48,7.8,6.18,13.5h0.12c1.92-4.26,4.2-9.54,5.4-12.479
		c1.14-2.88,1.44-3.72,1.44-4.32c0-0.84-0.54-1.26-3.42-1.38v-1.68c1.68,0.12,3.48,0.12,5.22,0.12c1.68,0,3.42,0,5.22-0.12v1.68
		C102.271,138.901,101.311,139.261,100.471,141.061z"/>
	<path d="M116.311,142.381l0.18,0.06c2.04-3.66,5.521-5.88,9.96-5.88c3.359,0,5.76,1.26,7.14,3.48c1.38,2.28,1.56,5.34,1.56,8.28
		c0,3-0.18,5.76-0.18,8.459c0,4.92,0.6,5.521,4.38,5.64v1.681c-2.28-0.061-4.62-0.12-6.96-0.12c-2.399,0-4.68,0.06-6.96,0.12v-1.681
		c3.12-0.06,3.96-0.479,4.2-3.899c0.061-1.08,0.061-3.479,0.061-6.12c0-3.479-0.12-7.14-1.141-9.66c-0.779-1.98-2.1-3.18-4.439-3.18
		c-2.7,0-4.8,1.8-5.939,3.78c-1.2,2.04-1.74,4.68-1.74,8.4c0,5.579,0.06,7.439,0.24,8.339c0.42,1.92,1.5,2.34,3.96,2.34v1.681
		c-2.221-0.061-4.561-0.12-6.9-0.12c-2.399,0-4.739,0.06-6.899,0.12v-1.681c2.58-0.06,3.6-0.239,4.02-1.619
		c0.24-0.9,0.3-1.92,0.3-9.36c0-7.62-0.06-8.459-0.3-9.18c-0.359-0.96-1.14-1.44-3.36-1.62v-1.56c3.78-0.48,6.36-1.62,8.04-2.52
		l0.601,0.36L116.311,142.381z"/>
	<path d="M155.729,149.881c1.38,0,2.94,0.12,4.02,0.3c0.061-4.26-0.18-6.24-0.72-7.74c-0.96-2.64-2.88-3.9-5.399-3.9
		c-2.22,0-4.26,0.96-4.26,3.18c0,0.78,0.239,1.62,0.899,2.88c-0.479,1.08-1.439,1.98-2.88,1.98c-1.68,0-2.939-1.26-2.939-3.419
		c0-4.68,5.699-6.6,10.56-6.6c3.479,0,6.84,0.96,8.52,3.66c1.38,2.16,1.56,4.919,1.56,8.1c0,2.52-0.12,7.2-0.12,9.24
		c0,2.46,0.181,3.84,1.2,3.84c0.54,0,1.561-0.48,2.88-1.26l0.78,1.5c-2.88,2.04-5.16,3-7.02,3c-2.64,0-3.18-2.101-3.18-4.141
		c0-0.72,0.06-1.56,0.119-2.039l-0.119-0.061c-1.62,4.08-5.34,6.24-9.24,6.24c-4.08,0-7.319-2.34-7.319-6.601
		C143.07,151.86,150.09,149.881,155.729,149.881z M159.749,152.101c-0.84-0.18-2.399-0.3-3.359-0.3c-3.84,0-7.92,1.68-7.92,5.76
		c0,2.76,1.86,4.26,4.14,4.26C157.59,161.82,159.569,154.98,159.749,152.101z"/>
	<path d="M185.669,180.659c-2.28-0.06-4.68-0.119-6.96-0.119c-2.34,0-4.8,0.06-7.079,0.119v-1.68c2.64-0.06,3.84-0.3,4.14-2.1
		c0.18-1.2,0.18-3.66,0.18-18.539c0-13.86,0-15.3-0.3-16.14c-0.3-0.9-1.14-1.38-3.359-1.56v-1.56c3.119-0.36,6.18-1.56,7.979-2.58
		l0.6,0.24l0.12,3.66l0.12,0.06c1.979-2.34,5.22-3.9,8.939-3.9c2.939,0,5.939,1.02,8.16,3.18c2.64,2.46,4.14,6.18,4.14,10.259
		c0,4.2-1.561,8.28-4.92,11.22c-2.58,2.279-5.76,3.42-9,3.42c-3.12,0-5.64-1.08-7.079-2.221l-0.12,0.061
		c0,11.1,0.06,12.72,0.239,13.919c0.36,2.101,1.381,2.521,4.2,2.58V180.659z M181.229,152.221c0,2.52,0.18,5.28,1.319,7.2
		c1.08,1.739,2.94,2.88,5.58,2.88c5.46,0,8.34-4.8,8.34-11.28c0-6.72-3.12-11.759-8.279-11.759c-2.82,0-5.4,1.5-6.96,4.02V152.221z"
		/>
	<path d="M208.049,162.96c0.24-2.76,0.3-5.34,0.12-8.339l1.68-0.12c0.601,5.039,3.3,8.039,7.92,8.039c3.12,0,5.34-1.319,5.34-3.779
		c0-3-3.36-4.62-7.14-6.54c-4.32-2.16-7.56-3.84-7.56-7.98c0-4.2,3.3-7.68,9.779-7.68c2.7,0,5.52,0.6,7.979,1.5
		c-0.12,2.58,0,5.16,0.24,7.8l-1.62,0.12c-0.78-4.74-3.3-7.32-7.38-7.32c-2.76,0-4.619,1.2-4.619,3.36c0,2.52,2.34,3.66,6.42,5.64
		c4.799,2.34,8.459,4.2,8.459,8.88c0,4.56-3.479,8.1-10.68,8.1C213.869,164.641,210.749,163.98,208.049,162.96z"/>
	<path d="M258.268,159.061c-2.04,2.64-5.52,5.58-11.16,5.58c-7.799,0-13.859-5.58-13.859-13.8c0-7.32,4.86-14.28,13.5-14.28
		c5.76,0,11.039,2.94,11.1,10.68l-0.36,0.6h-18.359c-0.06,0.48-0.06,0.96-0.06,1.38c0,6.42,3.239,12.42,10.079,12.42
		c3.54,0,6.06-1.62,7.92-3.78L258.268,159.061z M239.368,145.801h11.46c0.84,0,1.14-0.06,1.14-1.38c0-3.3-1.86-5.88-5.58-5.88
		C242.068,138.541,240.088,142.141,239.368,145.801z"/>
</g>
<g>
</g>
<g>
</g>
<g>
</g>
<g>
</g>
<g>
</g>
<g>
</g>
<g>
</g>
<g>
</g>
<g>
</g>
<g>
</g>
<g>
</g>
<g>
</g>
<g>
</g>
<g>
</g>
<g>
</g>
</svg>
