<?xml version="1.0" encoding="UTF-8"?><svg id="logo" xmlns="http://www.w3.org/2000/svg" viewBox="0 0 300 300"><defs><style>.cls-1{stroke-width:0px;}</style></defs><path class="cls-1" d="m43.05,162.54c.06-4.02.12-8.1-.12-12.12l1.62-.12c1.02,7.74,5.46,12.18,12.12,12.18,4.44,0,8.58-1.98,8.58-6.78,0-5.28-5.16-7.56-10.38-10.14-5.94-2.94-11.64-6.12-11.64-12.24,0-5.64,4.8-10.32,13.32-10.32,4.26,0,7.68,1.2,11.64,1.98,0,3.6.18,7.2.54,10.68l-1.62.18c-1.26-6.78-5.1-10.74-11.16-10.74-4.14,0-7.8,1.86-7.8,5.76,0,4.56,4.98,6.96,9.84,9.3,7.08,3.42,12.36,6.3,12.36,13.02s-4.86,11.46-14.58,11.46c-4.62,0-7.98-1.14-12.72-2.1Z"/><path class="cls-1" d="m100.47,141.06c-1.86,4.02-5.1,11.34-7.44,16.68-4.74,10.92-6.54,14.82-7.86,17.1-2.4,4.2-4.44,6.3-7.74,6.3s-4.62-1.98-4.62-3.78,1.2-2.82,2.52-3.3c1.26,1.26,2.34,2.04,3.6,2.04,2.04,0,4.26-2.58,9.06-13.02-2.58-5.52-6.42-13.68-10.32-21.66-.96-1.98-1.74-2.46-4.38-2.7v-1.68c2.28.12,4.5.12,6.66.12s4.44,0,6.9-.12v1.68c-2.64,0-3.3.54-3.3,1.5,0,.6.3,1.44,1.02,3.18,1.26,2.94,3.48,7.8,6.18,13.5h.12c1.92-4.26,4.2-9.54,5.4-12.48,1.14-2.88,1.44-3.72,1.44-4.32,0-.84-.54-1.26-3.42-1.38v-1.68c1.68.12,3.48.12,5.22.12s3.42,0,5.22-.12v1.68c-2.46.18-3.42.54-4.26,2.34Z"/><path class="cls-1" d="m116.31,142.38l.18.06c2.04-3.66,5.52-5.88,9.96-5.88,3.36,0,5.76,1.26,7.14,3.48,1.38,2.28,1.56,5.34,1.56,8.28s-.18,5.76-.18,8.46c0,4.92.6,5.52,4.38,5.64v1.68c-2.28-.06-4.62-.12-6.96-.12s-4.68.06-6.96.12v-1.68c3.12-.06,3.96-.48,4.2-3.9.06-1.08.06-3.48.06-6.12,0-3.48-.12-7.14-1.14-9.66-.78-1.98-2.1-3.18-4.44-3.18-2.7,0-4.8,1.8-5.94,3.78-1.2,2.04-1.74,4.68-1.74,8.4,0,5.58.06,7.44.24,8.34.42,1.92,1.5,2.34,3.96,2.34v1.68c-2.22-.06-4.56-.12-6.9-.12s-4.74.06-6.9.12v-1.68c2.58-.06,3.6-.24,4.02-1.62.24-.9.3-1.92.3-9.36s-.06-8.46-.3-9.18c-.36-.96-1.14-1.44-3.36-1.62v-1.56c3.78-.48,6.36-1.62,8.04-2.52l.6.36.18,5.46Z"/><path class="cls-1" d="m155.73,149.88c1.38,0,2.94.12,4.02.3.06-4.26-.18-6.24-.72-7.74-.96-2.64-2.88-3.9-5.4-3.9-2.22,0-4.26.96-4.26,3.18,0,.78.24,1.62.9,2.88-.48,1.08-1.44,1.98-2.88,1.98-1.68,0-2.94-1.26-2.94-3.42,0-4.68,5.7-6.6,10.56-6.6,3.48,0,6.84.96,8.52,3.66,1.38,2.16,1.56,4.92,1.56,8.1,0,2.52-.12,7.2-.12,9.24,0,2.46.18,3.84,1.2,3.84.54,0,1.56-.48,2.88-1.26l.78,1.5c-2.88,2.04-5.16,3-7.02,3-2.64,0-3.18-2.1-3.18-4.14,0-.72.06-1.56.12-2.04l-.12-.06c-1.62,4.08-5.34,6.24-9.24,6.24s-7.32-2.34-7.32-6.6c0-6.18,7.02-8.16,12.66-8.16Zm4.02,2.22c-.84-.18-2.4-.3-3.36-.3-3.84,0-7.92,1.68-7.92,5.76,0,2.76,1.86,4.26,4.14,4.26,4.98,0,6.96-6.84,7.14-9.72Z"/><path class="cls-1" d="m185.67,180.66c-2.28-.06-4.68-.12-6.96-.12s-4.8.06-7.08.12v-1.68c2.64-.06,3.84-.3,4.14-2.1.18-1.2.18-3.66.18-18.54,0-13.86,0-15.3-.3-16.14-.3-.9-1.14-1.38-3.36-1.56v-1.56c3.12-.36,6.18-1.56,7.98-2.58l.6.24.12,3.66.12.06c1.98-2.34,5.22-3.9,8.94-3.9,2.94,0,5.94,1.02,8.16,3.18,2.64,2.46,4.14,6.18,4.14,10.26s-1.56,8.28-4.92,11.22c-2.58,2.28-5.76,3.42-9,3.42s-5.64-1.08-7.08-2.22l-.12.06c0,11.1.06,12.72.24,13.92.36,2.1,1.38,2.52,4.2,2.58v1.68Zm-4.44-28.44c0,2.52.18,5.28,1.32,7.2,1.08,1.74,2.94,2.88,5.58,2.88,5.46,0,8.34-4.8,8.34-11.28s-3.12-11.76-8.28-11.76c-2.82,0-5.4,1.5-6.96,4.02v8.94Z"/><path class="cls-1" d="m208.05,162.96c.24-2.76.3-5.34.12-8.34l1.68-.12c.6,5.04,3.3,8.04,7.92,8.04,3.12,0,5.34-1.32,5.34-3.78,0-3-3.36-4.62-7.14-6.54-4.32-2.16-7.56-3.84-7.56-7.98s3.3-7.68,9.78-7.68c2.7,0,5.52.6,7.98,1.5-.12,2.58,0,5.16.24,7.8l-1.62.12c-.78-4.74-3.3-7.32-7.38-7.32-2.76,0-4.62,1.2-4.62,3.36,0,2.52,2.34,3.66,6.42,5.64,4.8,2.34,8.46,4.2,8.46,8.88s-3.48,8.1-10.68,8.1c-3.12,0-6.24-.66-8.94-1.68Z"/><path class="cls-1" d="m258.27,159.06c-2.04,2.64-5.52,5.58-11.16,5.58-7.8,0-13.86-5.58-13.86-13.8,0-7.32,4.86-14.28,13.5-14.28,5.76,0,11.04,2.94,11.1,10.68l-.36.6h-18.36c-.06.48-.06.96-.06,1.38,0,6.42,3.24,12.42,10.08,12.42,3.54,0,6.06-1.62,7.92-3.78l1.2,1.2Zm-18.9-13.26h11.46c.84,0,1.14-.06,1.14-1.38,0-3.3-1.86-5.88-5.58-5.88-4.32,0-6.3,3.6-7.02,7.26Z"/></svg>
